<svg id="icon-star-large-on" xmlns="http://www.w3.org/2000/svg" width="40" height="40" viewBox="0 0 40 40">
  <rect id="container" width="40" height="40" fill="#e6e6e6" opacity="0.003"/>
  <path id="star" d="M19.111.806l4.534,10.6,11.186.824a1.167,1.167,0,0,1,.686,2.112l-8.893,7.882,2.887,10.6a1.167,1.167,0,0,1-1.8,1.3L18,27.89,8.284,34.125a1.167,1.167,0,0,1-1.8-1.3l2.888-10.6L.483,14.34a1.167,1.167,0,0,1,.686-2.112L12.356,11.4,16.889.806a1.168,1.168,0,0,1,2.221,0" transform="translate(1.978 2.832)" fill="#1a1818"/>
</svg>
