<svg id="icon-star" xmlns="http://www.w3.org/2000/svg" width="16" height="16" viewBox="0 0 16 16">
  <rect id="container" width="16" height="16" fill="#e6e6e6" opacity="0.003"/>
  <path id="star" d="M7.644.322,9.458,4.561l4.475.329a.467.467,0,0,1,.274.845L10.65,8.888,11.8,13.128a.467.467,0,0,1-.718.522L7.2,11.156,3.314,13.65a.467.467,0,0,1-.718-.522L3.751,8.888.193,5.736a.467.467,0,0,1,.274-.845l4.475-.329L6.756.322a.467.467,0,0,1,.888,0" transform="translate(0.791 1.133)" fill="#1a1818"/>
</svg>
