<svg xmlns="http://www.w3.org/2000/svg" width="40" height="40" viewBox="0 0 40 40">
  <g id="icon-phone-number" transform="translate(-938 -929)">
    <rect id="area" width="40" height="40" transform="translate(938 929)" fill="none"/>
    <path id="패스_14732" data-name="패스 14732" d="M648.417,815.634a.982.982,0,0,1-.206,1.078c-1.024,1.024-3.388,3.386-3.444,3.44a26.858,26.858,0,0,0,11.042,11.041c.052-.058.094-.1.094-.1l3.81-3.81h0l8.664,1.818,0,0v6.424a4.055,4.055,0,0,1-4.638,4,32.288,32.288,0,0,1-27.319-27.309,4.058,4.058,0,0,1,4-4.652h6.428Z" transform="translate(305.616 125.426)" fill="none" stroke="#222" stroke-linejoin="round" stroke-width="2"/>
  </g>
</svg>
